<svg xmlns="http://www.w3.org/2000/svg" data-name="Layer 1" viewBox="0 0 100 100" x="0px" y="0px"><path d="M86,71.55a37.72,37.72,0,0,0-1.78-4.44,7.56,7.56,0,0,1-.55-4.75,14.4,14.4,0,0,0-1-8.85c-.66-1.45-1.26-2.93-1.85-4.41a55,55,0,0,1-2.39-8.64,67.83,67.83,0,0,0-3.1-10.91A40.42,40.42,0,0,0,60.54,10.64a22.36,22.36,0,0,0-5-2.66c-.59-.21-1.22-.3-1.79-.55a9.14,9.14,0,0,0-3.56-.76,16.56,16.56,0,0,0-7.51,1.74,27.58,27.58,0,0,0-9.21,7.23,28.08,28.08,0,0,0-6.31,13c-.53,2.68-.93,5.39-1.35,8.09a34.52,34.52,0,0,1-4.21,12.12c-1.57,2.71-3.24,5.36-4.85,8a23,23,0,0,0-2.85,6.46,12.42,12.42,0,0,0,3.58,12.51,14.18,14.18,0,0,0,6.2,3.63,1.42,1.42,0,0,1,.71.42,15,15,0,0,1,.82,1.35,9.67,9.67,0,0,1-.78.71c-.9.65-1.83,1.26-2.73,1.91a14,14,0,0,0-1.81,1.42,1.32,1.32,0,0,0,.41,2.25,2.14,2.14,0,0,0,.39.16c2.5.73,4.85.58,6.89-1.24l.36-.29a13.58,13.58,0,0,0,2.49,4,9.06,9.06,0,0,0,4.93,3A4,4,0,0,0,37.92,93a1.48,1.48,0,0,0,.59-2.45c-.24-.28-.52-.53-.78-.79a5,5,0,0,1-1.47-4.45A9.3,9.3,0,0,1,38.82,80c1.28-1.38,2.64-2.68,3.9-4.07A11.89,11.89,0,0,0,46,69.13c.14-1.28.2-2.56.3-3.84,0-.29.08-.58.13-1a8.25,8.25,0,0,0,8,.23c.08.64.13,1.15.21,1.65a9.19,9.19,0,0,0,3.31,5.91A2.89,2.89,0,0,1,59,73.91a13.24,13.24,0,0,0,1.24,3.44,17.08,17.08,0,0,0,4.31,5,17.94,17.94,0,0,1,3.15,2.88,3.81,3.81,0,0,1,.75,2.23,7.32,7.32,0,0,1-.52,2.66,7.27,7.27,0,0,0-.41,1.57,1.26,1.26,0,0,0,1.18,1.49,2,2,0,0,0,.84,0,14.62,14.62,0,0,0,9-5.72A32.1,32.1,0,0,1,82.9,82.4c.39-.37.76-.77,1.12-1.17a9.83,9.83,0,0,0,1.76-2.82A10,10,0,0,0,86,71.55ZM67.16,46.14a3.1,3.1,0,0,1-2.24.9c-1.54.11-1.55.11-2,1.57a31.45,31.45,0,0,1-3.35,7.93,17.6,17.6,0,0,1-4.73,5.22A6.89,6.89,0,0,1,50,63.32a7.14,7.14,0,0,1-3.1-1.14,20.35,20.35,0,0,1-2.63-1.89,37.6,37.6,0,0,1-7.69-9c-.13-.22-.26-.44-.38-.67-.67-1.29-1.16-2.6-.29-4,1.22-3.62,2.44-7.23,3.63-10.86a1.06,1.06,0,0,1,1-.85c.76-.06,1.52-.18,2.28-.28a.93.93,0,0,0,.9-.86.92.92,0,0,0-.8-1,3.91,3.91,0,0,0-.76-.07c-.17,0-.34,0-.51.05l-.77,0a1,1,0,0,1-.23-.07c.2-.53.4-1.05.61-1.57a19.38,19.38,0,0,1,3.25-5.39,15.11,15.11,0,0,1,4.35-3.4,4.44,4.44,0,0,1,5.88,1,12.47,12.47,0,0,1,2,3c1.15,2.29,2.26,4.6,3.44,6.88a22.51,22.51,0,0,0,1.84,3A4.2,4.2,0,0,0,65.55,38a2.61,2.61,0,0,1,2.22,1.41A6,6,0,0,1,67.16,46.14ZM44.85,39.72a3.92,3.92,0,0,1-.23-.81A.84.84,0,0,1,45.1,38a.9.9,0,0,1,1.09.24,2.81,2.81,0,0,1,.43.73A25.75,25.75,0,0,1,48,43.4,15.17,15.17,0,0,1,48.5,47a5.25,5.25,0,0,1-.12,1c-.11.51-.39,1-1,1a.93.93,0,0,1-.93-.72,2.2,2.2,0,0,1-.12-.76A19.61,19.61,0,0,0,44.85,39.72Zm10.68,12a.93.93,0,0,1-.83,1.18c-1.24.28-2.5.52-3.76.73-.44.07-.88.1-1.37.14a10,10,0,0,1-1.9-.06l-1.73-.24a1.87,1.87,0,0,1-.64-.22.91.91,0,0,1-.47-1,.85.85,0,0,1,.73-.74,2.58,2.58,0,0,1,.92,0,17.05,17.05,0,0,0,6.86-.28c.3-.07.6-.15.91-.2C55,50.91,55.4,51.16,55.53,51.7Zm3.89-17.42a.85.85,0,0,1-.88.67c-.36,0-.73-.11-1.09-.13l-4.17-.23a4.09,4.09,0,0,1-1-.14.93.93,0,0,1,0-1.77A7.55,7.55,0,0,1,54,32.51a33.33,33.33,0,0,1,4.21.5,2.35,2.35,0,0,1,.73.21A.9.9,0,0,1,59.42,34.28Zm-2.27,5.57a4.42,4.42,0,0,1-.08,1.88l-.06.21a1.23,1.23,0,0,1-1.18.83,1.17,1.17,0,0,1-1.15-.84,3.4,3.4,0,0,1,0-2.33A1.35,1.35,0,0,1,56,38.68a1.17,1.17,0,0,1,1.1,1C57.12,39.74,57.14,39.8,57.15,39.85Zm-15.46.65a4.37,4.37,0,0,1-.08,1.87l-.06.22a1.23,1.23,0,0,1-1.17.83,1.17,1.17,0,0,1-1.15-.85,3.31,3.31,0,0,1,0-2.32,1.33,1.33,0,0,1,1.37-.92,1.15,1.15,0,0,1,1.1,1A.75.75,0,0,1,41.69,40.5Zm24.66.27a3.79,3.79,0,0,1-.22,3.33c-.16.27-.34.53-.52.79a1,1,0,0,1-1.28.31A1,1,0,0,1,64,44a1,1,0,0,1,.06-.16,3.38,3.38,0,0,0,.63-2.65.77.77,0,0,1,.62-.9.87.87,0,0,1,1.07.47ZM51.85,55.89a.92.92,0,0,1-.77,1l-.16,0a4.61,4.61,0,0,1-1.23,0,9.66,9.66,0,0,1-1.14-.13,2.4,2.4,0,0,1-.87-.32A.87.87,0,0,1,48,54.9a2.9,2.9,0,0,1,.59,0c.77,0,1.53.11,2.29.18A.93.93,0,0,1,51.85,55.89Z"/></svg>