<svg xmlns="http://www.w3.org/2000/svg" data-name="Layer 1" viewBox="0 0 100 100" x="0px" y="0px">
    <path
        d="M80.48,53.12a48.78,48.78,0,0,0,.9-5.55A123.39,123.39,0,0,0,81.49,34,24.68,24.68,0,0,0,75.06,18.6a30.93,30.93,0,0,0-11-7.79,30.54,30.54,0,0,0-8.33-2.7c-2-.25-4-.42-6.06-.6-1.32-.11-2.65-.26-4-.24a1.6,1.6,0,0,0-1.34,2.65c.21.31.45.59.67.89-1.84.4-3.62.66-5.32,1.17-8.88,2.64-15,8.26-17.73,17.18a38.46,38.46,0,0,0-.28,20.61c.29,1.21.68,2.39,1,3.57a1.13,1.13,0,0,1-.19.19,1.3,1.3,0,0,1-.32.14,5.25,5.25,0,0,0-3.65,3.65,12.18,12.18,0,0,0-.62,3,14.77,14.77,0,0,0,2.23,9.64c1.28,1.89,2.9,3.41,5.32,3.7a20.49,20.49,0,0,0,2.23,0c.44,1.27.85,2.58,1.35,3.84,1.79,4.6,4.27,8.71,8.41,11.59a19,19,0,0,0,8.82,3.56,24.39,24.39,0,0,0,9.26-1,15.31,15.31,0,0,0,6.9-3.83,67,67,0,0,0,4.88-5.37A32.09,32.09,0,0,0,73.1,72a1.22,1.22,0,0,1,1.31-1,5.73,5.73,0,0,0,4.69-2.7A18.61,18.61,0,0,0,82,60.18,8.79,8.79,0,0,0,80.48,53.12ZM24.16,70.05a7.5,7.5,0,0,1-2.54-3.44A14,14,0,0,1,21,59.23a5.63,5.63,0,0,1,.56-1.53,2,2,0,0,1,2.92-1l.67.35a67.33,67.33,0,0,0,1.8,13.44A2.49,2.49,0,0,1,24.16,70.05Zm46.92-1.92A26.2,26.2,0,0,1,66,79.34c-1.27,1.72-2.72,3.32-4.12,4.94a15.77,15.77,0,0,1-9.63,5.12,16.32,16.32,0,0,1-7.55,0,17.72,17.72,0,0,1-9.83-7,35.22,35.22,0,0,1-5.22-13.08c-.63-3-1.1-6-1.43-9-.49-4.46.42-8.79,1.56-13.07A27.69,27.69,0,0,1,33,39.47c.6-.95,1.31-1.83,2-2.74l.27.08c.08.34.13.68.23,1a2.12,2.12,0,0,0,2.92,1.52,11,11,0,0,0,2.27-1.21,76.16,76.16,0,0,1,11-6.51l2.91-1.29c-.08.5-.14.86-.19,1.23a9.3,9.3,0,0,0-.15,1.28,2.15,2.15,0,0,0,2.68,2.29,39.78,39.78,0,0,0,4.48-1.36c1.18-.4,2.33-.89,3.5-1.33.28-.1.57-.17.93-.28.05.36.1.62.11.88a34,34,0,0,0,2,10.42c1,3,2.08,6,2.77,9.07A40.34,40.34,0,0,1,71.08,68.13Zm8.14-8.45a17.24,17.24,0,0,1-2,6.2,3.92,3.92,0,0,1-1.92,2,9.29,9.29,0,0,1-1.19.28,55.38,55.38,0,0,0,.05-12.34,17.42,17.42,0,0,1,1.6-1.15,2,2,0,0,1,3.08,1A6.79,6.79,0,0,1,79.22,59.68ZM59.62,73.63a1.25,1.25,0,0,1-.86,1.26,3.59,3.59,0,0,1-1.26.22q-6.07,0-12.16,0A3.78,3.78,0,0,1,44.19,75a1.3,1.3,0,0,1-.93-1.33c.07-1.68,2.59-1.54,3.74-1.5q2.2.06,4.41,0l4.33-.08C56.88,72.06,59.64,71.84,59.62,73.63Zm-14.81-22a7.34,7.34,0,0,1-.06-1,1.1,1.1,0,0,1,.93-1.07,1.13,1.13,0,0,1,1.32.52,4.66,4.66,0,0,1,.44,1.32,34.85,34.85,0,0,1,.5,8c0,1.6,0,3.2,0,4.8a3.14,3.14,0,0,1-.12.92,1.27,1.27,0,0,1-1.42,1A1.26,1.26,0,0,1,45.24,65a5.61,5.61,0,0,1-.05-1.16c0-2.31.11-4.61.05-6.91C45.2,55.14,45,53.4,44.81,51.65Zm-1.74-5.09c-.88.17-1.77.3-2.66.42a19.86,19.86,0,0,0-4.95,1.35,10.46,10.46,0,0,1-1,.33A1.35,1.35,0,0,1,33,47.79a1.19,1.19,0,0,1,.34-1.38,2.58,2.58,0,0,1,.8-.48A26.44,26.44,0,0,1,42.75,44a1.32,1.32,0,0,1,1.55,1.11C44.4,45.8,43.93,46.39,43.07,46.56Zm22.61-.28a1.16,1.16,0,0,1-1.14,1c-.58,0-1.17-.06-1.75-.07-1.87,0-3.74,0-5.61,0a5.89,5.89,0,0,1-1.27-.1,1.23,1.23,0,0,1-1-1.16,1.26,1.26,0,0,1,1-1.3,16.36,16.36,0,0,1,3.49-.3c1.45,0,2.9.16,4.32.3a4,4,0,0,1,1.24.32A1.23,1.23,0,0,1,65.68,46.28Zm-3.27,8.77a4.42,4.42,0,0,1-.1,1.66,3,3,0,0,1-.2.55,1.66,1.66,0,0,1-2.94.15,4.28,4.28,0,0,1-.28-4,1.61,1.61,0,0,1,2.84-.35A4.11,4.11,0,0,1,62.41,55.05Zm-22-.08a3.09,3.09,0,0,1,.09,1.78,2.31,2.31,0,0,1-.1.28,1.48,1.48,0,0,1-2.3.76,2.51,2.51,0,0,1-.93-1,7.78,7.78,0,0,1-.57-2,1.59,1.59,0,0,1,1.14-1.82,1.81,1.81,0,0,1,2.15.75A8.6,8.6,0,0,1,40.44,55Z" />
    <text x="0" y="115" fill="#000000" font-size="5px" font-weight="bold"
        font-family="'Helvetica Neue', Helvetica, Arial-Unicode, Arial, Sans-serif">Created by
        kenneth bryan chung</text>
    <!--
    <text x="0" y="120" fill="#000000" font-size="5px" font-weight="bold"
        font-family="'Helvetica Neue', Helvetica, Arial-Unicode, Arial, Sans-serif">from the Noun
        Project</text>-->
</svg>