<svg xmlns="http://www.w3.org/2000/svg" data-name="Layer 1" viewBox="0 0 100 100" x="0px" y="0px">
    <path
        d="M81.07,78.25a14,14,0,0,0-5.22-9c-1.14-.94-2.33-1.82-3.48-2.74a17.7,17.7,0,0,1-4-4.38c.18-.62.7-.61,1.12-.76a9.28,9.28,0,0,0,5.17-4.26,13.17,13.17,0,0,0,1.67-5.84,6.64,6.64,0,0,0-1.19-4.7A1.1,1.1,0,0,1,75,45.9a43.18,43.18,0,0,0-.49-10.41A34.67,34.67,0,0,0,64.11,16.1a23.23,23.23,0,0,0-10.74-5.79,11.08,11.08,0,0,0-5.54-.19,8.53,8.53,0,0,1-3.39.38h-.21a23.83,23.83,0,0,0-8.62,1.85C28.33,15.5,23.54,20.8,21.77,28.64a40,40,0,0,0-.29,14.27c.18,1.32.41,2.62.62,4a6.3,6.3,0,0,0-2.87,3.78,9.89,9.89,0,0,0,.24,6.53,5.37,5.37,0,0,0,3,3.14,8.67,8.67,0,0,0,2.41.76,3,3,0,0,1,2.28,1.63c2,3.12,4,6.27,6.11,9.37,1.42,2.1,2.89,4.16,4.44,6.16a9,9,0,0,0,6.45,3.19,31.75,31.75,0,0,0,5.16,0,31.24,31.24,0,0,0,4-.58,5.94,5.94,0,0,0,3.91-2.65l2.12-3.15c.21-.3.45-.58.73-1,.12.37.19.6.27.83A23.76,23.76,0,0,0,63,80.88a13.77,13.77,0,0,0,8.34,6.2c.41.1.81.22,1.22.34A2,2,0,0,1,74.15,89a1.43,1.43,0,0,0,2.46.73,15.51,15.51,0,0,0,1.57-1.57A11.76,11.76,0,0,0,81.07,78.25Zm-12-29.78a7.67,7.67,0,0,1,2.84-.77,1.38,1.38,0,0,1,1.66,1.12,6.93,6.93,0,0,1,.13,3.23,9.93,9.93,0,0,1-1.88,4.63,5.65,5.65,0,0,1-2.75,2Zm-43.82,10c-2.45-.36-3.58-1.53-3.84-4a7.17,7.17,0,0,1,.45-3.83,3.08,3.08,0,0,1,3.69-1.87C25.3,52,24.75,55.15,25.26,58.46Zm41.08,1.79a2.68,2.68,0,0,1-.4,1.29,50,50,0,0,1-3,4.54,106.86,106.86,0,0,0-7.58,10.26,5.1,5.1,0,0,1-4,2.28,28.18,28.18,0,0,1-7.89,0,5.57,5.57,0,0,1-3.87-2.13Q36.86,72.77,34.19,69c-1.63-2.34-3.17-4.73-4.79-7.08A9,9,0,0,1,27.74,57a39,39,0,0,1,4.2-19.26,25.42,25.42,0,0,1,6.78-8,80.67,80.67,0,0,1,8.84-5.93,1.21,1.21,0,0,1,1.45.12,46.88,46.88,0,0,1,5.79,4.23,40.68,40.68,0,0,1,9.44,12.31A19.11,19.11,0,0,1,66.32,48c.15,1.93.21,3.86.28,5.42C66.51,56,66.46,58.11,66.34,60.25Zm-9,4.69a1.18,1.18,0,0,1-1.23.79,6.14,6.14,0,0,1-.93-.19,33.38,33.38,0,0,0-13.79-.11c-.58.12-1.14.33-1.73.44a2.38,2.38,0,0,1-.92,0,1,1,0,0,1-.87-.93,1.11,1.11,0,0,1,.51-1.19,5.34,5.34,0,0,1,1.15-.5,19.71,19.71,0,0,1,5.17-.87l2.53-.12a39.38,39.38,0,0,1,8.45,1,4.49,4.49,0,0,1,1.08.39A1.12,1.12,0,0,1,57.33,64.94ZM44.1,46.84a1.17,1.17,0,0,1,1.59.63,34.09,34.09,0,0,1,1.51,3.59A50.11,50.11,0,0,1,49,59.18a1.52,1.52,0,0,1,0,.21,1.33,1.33,0,0,1-.94,1.37,1.17,1.17,0,0,1-1.46-.89,17.46,17.46,0,0,1-.51-2.47,30.35,30.35,0,0,0-2.42-8.71,1.48,1.48,0,0,1-.12-.29A1.24,1.24,0,0,1,44.1,46.84ZM54.77,67.29a1.23,1.23,0,0,1-.88,1.28,3.66,3.66,0,0,1-1.14.17c-1.24,0-2.46,0-3.7.07l-.54,0h-.19c-1.4.06-2.8.13-4.21.15A3.3,3.3,0,0,1,43,68.8a1.19,1.19,0,0,1,0-2.17,2.9,2.9,0,0,1,1-.22l9-.27a4.47,4.47,0,0,1,.73,0A1.26,1.26,0,0,1,54.77,67.29Zm-21-23.9a.9.9,0,0,1-.23.2,1.27,1.27,0,0,1-1.65,0,1.24,1.24,0,0,1-.19-1.55,3.88,3.88,0,0,1,2.56-1.86,8,8,0,0,1,3.55.07A17.41,17.41,0,0,1,42.65,42a2.7,2.7,0,0,1,.84.62,1,1,0,0,1,.11,1.27,1,1,0,0,1-1.16.53A5.36,5.36,0,0,1,41.37,44,13.93,13.93,0,0,0,36,42.54,2.34,2.34,0,0,0,33.76,43.39ZM62,41.74c0,.73-.47,1-1.47,1.12s-2.24.18-3.35.35a10.56,10.56,0,0,0-4.72,2,7.18,7.18,0,0,1-.79.52,1.29,1.29,0,0,1-1.79-.27,1.16,1.16,0,0,1,.37-1.67,20.46,20.46,0,0,1,3-1.9,13.48,13.48,0,0,1,5.81-1.3c.49,0,1,0,1.48,0C61.54,40.65,62,41,62,41.74Zm-2.89,7.57A4.53,4.53,0,0,1,59,52.39a1.47,1.47,0,0,1-.1.22,1.61,1.61,0,0,1-2.78.31,4.49,4.49,0,0,1-.29-4.68,1.61,1.61,0,0,1,2.74,0A3.73,3.73,0,0,1,59.09,49.31ZM36.44,53.46a2.93,2.93,0,0,1-.82-1.18,4.54,4.54,0,0,1-.09-2.61A1.69,1.69,0,0,1,37,48.26a1.51,1.51,0,0,1,1.61,1.24,7.89,7.89,0,0,1,.27,1.09,3.27,3.27,0,0,1,0,1.7,2.53,2.53,0,0,1-.49.93A1.24,1.24,0,0,1,36.44,53.46Z" />
</svg>